<svg xmlns="http://www.w3.org/2000/svg" width="220" height="300" viewBox="0 0 220 300">
<defs><filter id="s"><feDropShadow dy="8" stdDeviation="5" flood-opacity=".24"/></filter><linearGradient id="j" x2="0" y2="1"><stop stop-color="#ef5d6d"/><stop offset="1" stop-color="#a72f42"/></linearGradient></defs>
<g filter="url(#s)" stroke="#15233a" stroke-width="6" stroke-linejoin="round" stroke-linecap="round">
<ellipse cx="110" cy="277" rx="67" ry="13" fill="#07111f" opacity=".18" stroke="none"/>
<path d="M74 207 L64 266 Q64 280 82 281 H103 L108 211Z" fill="#30466d"/><path d="M146 207 L156 266 Q156 280 138 281 H117 L112 211Z" fill="#30466d"/>
<path d="M58 267 Q81 257 103 272 L99 289 H57Z" fill="#f5f7fb"/><path d="M162 267 Q139 257 117 272 L121 289 H163Z" fill="#f5f7fb"/>
<path d="M54 154 Q110 129 166 154 L152 225 Q110 241 68 225Z" fill="url(#j)"/><path d="M82 154 L110 183 L138 154" fill="#f7f7f2"/><path d="M110 183 V226" fill="none"/>
<path d="M68 160 Q42 169 35 204 Q31 222 49 226 Q62 226 68 211 L84 179" fill="#f4c6a8"/><path d="M152 160 Q178 169 185 204 Q189 222 171 226 Q158 226 152 211 L136 179" fill="#f4c6a8"/>
<circle cx="110" cy="105" r="65" fill="#f4c6a8"/>
<path d="M52 101 Q50 43 96 32 Q142 23 171 62 Q179 78 171 108 Q155 80 143 68 Q112 89 60 78Z" fill="#242a39"/>
<path d="M58 87 Q48 109 61 139" fill="none" stroke="#242a39" stroke-width="16"/><path d="M162 86 Q175 109 159 140" fill="none" stroke="#242a39" stroke-width="16"/>
<path d="M73 70 Q110 35 155 61 L153 79 Q111 65 70 81Z" fill="#e95262"/><path d="M74 70 Q103 47 154 62 L146 47 Q109 22 79 48Z" fill="#f7f3ec"/><path d="M86 48 Q109 33 137 49" fill="none" stroke="#e95262" stroke-width="8"/>
<ellipse cx="85" cy="110" rx="9" ry="13" fill="#15233a" stroke="none"/><ellipse cx="135" cy="110" rx="9" ry="13" fill="#15233a" stroke="none"/><circle cx="88" cy="106" r="3" fill="white" stroke="none"/><circle cx="138" cy="106" r="3" fill="white" stroke="none"/>
<path d="M92 139 Q110 151 128 139" fill="none" stroke="#9a4b4f" stroke-width="5"/><ellipse cx="67" cy="133" rx="12" ry="6" fill="#ef9397" opacity=".5" stroke="none"/><ellipse cx="153" cy="133" rx="12" ry="6" fill="#ef9397" opacity=".5" stroke="none"/>
<path d="M93 165 L110 179 L127 165" fill="#f7f7f2"/><path d="M87 197 H133" stroke="#f7cb52" stroke-width="7"/>
</g></svg>
